<svg width="80" height="80" viewBox="0 0 80 80" fill="none" xmlns="http://www.w3.org/2000/svg">
<path fill-rule="evenodd" clip-rule="evenodd" d="M40 5.00001C38.0302 5.00001 36.0796 5.38799 34.2597 6.14182C32.4399 6.89564 30.7863 8.00053 29.3934 9.39341C28.0005 10.7863 26.8956 12.4399 26.1418 14.2598C25.388 16.0796 25 18.0302 25 20C25 21.9698 25.388 23.9204 26.1418 25.7403C26.8956 27.5601 28.0005 29.2137 29.3934 30.6066C30.7863 31.9995 32.4399 33.1044 34.2597 33.8582C36.0796 34.612 38.0302 35 40 35C43.9782 35 47.7936 33.4197 50.6066 30.6066C53.4197 27.7936 55 23.9783 55 20C55 16.0218 53.4197 12.2065 50.6066 9.39341C47.7936 6.58036 43.9782 5.00001 40 5.00001ZM20 20C20.0004 16.1511 21.1113 12.3841 23.1995 9.15097C25.2877 5.91781 28.2644 3.35587 31.7725 1.77254C35.2806 0.189216 39.1711 -0.348231 42.9771 0.224692C46.7831 0.797614 50.3429 2.45657 53.2295 5.00249C56.116 7.54841 58.2066 10.8732 59.2504 14.5778C60.2943 18.2824 60.247 22.2095 59.1142 25.8879C57.9815 29.5664 55.8114 32.8398 52.8644 35.3155C49.9174 37.7911 46.3187 39.3639 42.5 39.845V67.5C42.5 68.163 42.2366 68.7989 41.7678 69.2678C41.2989 69.7366 40.663 70 40 70C39.337 70 38.7011 69.7366 38.2322 69.2678C37.7634 68.7989 37.5 68.163 37.5 67.5V39.85C32.6648 39.2408 28.2184 36.8872 24.9961 33.2312C21.7737 29.5752 19.9971 24.8684 20 19.995V20ZM32.465 62.87C32.5734 63.5237 32.4179 64.1937 32.0325 64.7328C31.6472 65.2719 31.0636 65.636 30.41 65.745C26.85 66.335 24.01 67.22 22.135 68.21C21.4462 68.5411 20.8202 68.9895 20.285 69.535C20.164 69.6669 20.0675 69.8193 20 69.985V70L20.01 70.04C20.0297 70.0981 20.0566 70.1536 20.09 70.205C20.2873 70.4943 20.5325 70.748 20.815 70.955C21.64 71.605 22.99 72.305 24.88 72.93C28.635 74.18 33.98 75 40 75C46.02 75 51.365 74.185 55.12 72.93C57.01 72.3 58.36 71.605 59.185 70.955C59.4691 70.7483 59.716 70.4946 59.915 70.205C59.9467 70.1533 59.9719 70.0979 59.99 70.04L60 70V69.98C59.9325 69.8143 59.836 69.6619 59.715 69.53C59.1794 68.9862 58.5535 68.5396 57.865 68.21C55.985 67.22 53.15 66.335 49.59 65.745C49.2584 65.7001 48.9392 65.589 48.6513 65.4184C48.3634 65.2478 48.1126 65.0212 47.914 64.7519C47.7153 64.4826 47.5727 64.1762 47.4946 63.8508C47.4166 63.5253 47.4047 63.1876 47.4596 62.8575C47.5145 62.5273 47.6351 62.2116 47.8143 61.929C47.9935 61.6464 48.2276 61.4026 48.5027 61.2121C48.7779 61.0216 49.0885 60.8883 49.4161 60.8201C49.7437 60.7519 50.0817 60.7502 50.41 60.815C54.26 61.45 57.67 62.455 60.195 63.785C62.5 65 65 67 65 70C65 72.13 63.7 73.76 62.28 74.885C60.83 76.025 58.88 76.95 56.7 77.675C52.31 79.14 46.405 80 40 80C33.595 80 27.69 79.14 23.3 77.675C21.12 76.95 19.17 76.025 17.72 74.885C16.3 73.76 15 72.13 15 70C15 67.005 17.5 65 19.805 63.785C22.33 62.455 25.74 61.45 29.59 60.815C30.2437 60.7066 30.9137 60.8621 31.4528 61.2475C31.9919 61.6328 32.356 62.2164 32.465 62.87Z" fill="#AFCA0B"/>
</svg>
