<svg width="36" height="36" viewBox="0 0 36 36" fill="none" xmlns="http://www.w3.org/2000/svg">
<path fill-rule="evenodd" clip-rule="evenodd" d="M4.5 30.375V15.75H6.75V30.375C6.75 30.6734 6.86853 30.9595 7.0795 31.1705C7.29048 31.3815 7.57663 31.5 7.875 31.5H28.125C28.4234 31.5 28.7095 31.3815 28.9205 31.1705C29.1315 30.9595 29.25 30.6734 29.25 30.375V15.75H31.5V30.375C31.5 31.2701 31.1444 32.1286 30.5115 32.7615C29.8786 33.3944 29.0201 33.75 28.125 33.75H7.875C6.97989 33.75 6.12145 33.3944 5.48851 32.7615C4.85558 32.1286 4.5 31.2701 4.5 30.375ZM29.25 5.625V13.5L24.75 9V5.625C24.75 5.32663 24.8685 5.04048 25.0795 4.82951C25.2905 4.61853 25.5766 4.5 25.875 4.5H28.125C28.4234 4.5 28.7095 4.61853 28.9205 4.82951C29.1315 5.04048 29.25 5.32663 29.25 5.625Z" fill="#AFCA0B"/>
<path fill-rule="evenodd" clip-rule="evenodd" d="M16.4097 3.375C16.8316 2.95319 17.4038 2.71623 18.0004 2.71623C18.5971 2.71623 19.1693 2.95319 19.5912 3.375L34.5469 18.3285C34.7582 18.5397 34.8769 18.8263 34.8769 19.125C34.8769 19.4237 34.7582 19.7103 34.5469 19.9215C34.3357 20.1327 34.0492 20.2514 33.7504 20.2514C33.4517 20.2514 33.1652 20.1327 32.9539 19.9215L18.0004 4.96575L3.04694 19.9215C2.8357 20.1327 2.54919 20.2514 2.25044 20.2514C1.9517 20.2514 1.66519 20.1327 1.45394 19.9215C1.2427 19.7103 1.12402 19.4237 1.12402 19.125C1.12402 18.8263 1.2427 18.5397 1.45394 18.3285L16.4097 3.375Z" fill="#AFCA0B"/>
</svg>
