<svg width="80" height="80" viewBox="0 0 80 80" fill="none" xmlns="http://www.w3.org/2000/svg">
<g clip-path="url(#clip0_65_423)">
<path d="M10 30C9.99986 25.0461 11.2265 20.1692 13.5704 15.8048C15.9143 11.4405 19.3026 7.72449 23.4325 4.98868C27.5625 2.25288 32.3058 0.582401 37.2387 0.126416C42.1716 -0.329569 47.1406 0.44313 51.7022 2.37552C56.2637 4.30791 60.2756 7.33983 63.3799 11.2006C66.4841 15.0613 68.5839 19.6307 69.4919 24.5007C70.3998 29.3708 70.0876 34.3898 68.5831 39.1098C67.0787 43.8298 64.4288 48.1037 60.87 51.55C59.855 52.53 59.075 53.55 58.605 54.645L54.795 63.49C54.6017 63.9383 54.2814 64.3202 53.8735 64.5885C53.4657 64.8568 52.9882 64.9999 52.5 65C53.1631 65 53.7989 65.2634 54.2678 65.7322C54.7366 66.2011 55 66.837 55 67.5C55 68.163 54.7366 68.7989 54.2678 69.2678C53.7989 69.7366 53.1631 70 52.5 70C53.1631 70 53.7989 70.2634 54.2678 70.7322C54.7366 71.2011 55 71.837 55 72.5C55 73.163 54.7366 73.7989 54.2678 74.2678C53.7989 74.7366 53.1631 75 52.5 75L51.38 77.235C50.9651 78.0654 50.3271 78.7639 49.5377 79.2522C48.7482 79.7406 47.8383 79.9995 46.91 80H33.09C32.1617 79.9995 31.2519 79.7406 30.4624 79.2522C29.6729 78.7639 29.035 78.0654 28.62 77.235L27.5 75C26.837 75 26.2011 74.7366 25.7323 74.2678C25.2634 73.7989 25 73.163 25 72.5C25 71.837 25.2634 71.2011 25.7323 70.7322C26.2011 70.2634 26.837 70 27.5 70C26.837 70 26.2011 69.7366 25.7323 69.2678C25.2634 68.7989 25 68.163 25 67.5C25 66.837 25.2634 66.2011 25.7323 65.7322C26.2011 65.2634 26.837 65 27.5 65C27.011 65.0009 26.5324 64.8583 26.1236 64.5899C25.7148 64.3215 25.3937 63.9391 25.2 63.49L21.395 54.64C20.8502 53.4713 20.0806 52.4213 19.13 51.55C16.2381 48.7558 13.9392 45.4074 12.3705 41.7048C10.8018 38.0021 9.99559 34.0212 10 30ZM40 5C35.0208 4.99916 30.1548 6.48516 26.0256 9.26756C21.8964 12.05 18.6921 16.002 16.8233 20.6172C14.9546 25.2324 14.5065 30.3005 15.5366 35.172C16.5667 40.0434 19.028 44.4963 22.605 47.96C23.92 49.23 25.175 50.78 25.985 52.665L29.15 60H50.86L54.02 52.665C54.83 50.78 56.085 49.23 57.4 47.96C60.9774 44.496 63.4388 40.0427 64.4687 35.1707C65.4986 30.2988 65.0502 25.2303 63.1808 20.6149C61.3114 15.9995 58.1063 12.0475 53.9763 9.26546C49.8463 6.48344 44.9796 4.99816 40 5Z" fill="#AFCA0B"/>
</g>
<defs>
<clipPath id="clip0_65_423">
<rect width="80" height="80" fill="white"/>
</clipPath>
</defs>
</svg>
