<svg width="34" height="34" viewBox="0 0 34 34" fill="none" xmlns="http://www.w3.org/2000/svg">
<path opacity="0.89" d="M17 34C26.3888 34 34 26.3888 34 17C34 7.61116 26.3888 0 17 0C7.61116 0 0 7.61116 0 17C0 26.3888 7.61116 34 17 34Z" fill="white"/>
<path d="M13.0128 7.29114C12.7473 7.02558 12.3167 7.02558 12.0511 7.29114C11.7856 7.5567 11.7856 7.98725 12.0511 8.25281L21.1258 17.3275C21.3914 17.593 21.8219 17.593 22.0875 17.3275C22.353 17.0619 22.353 16.6314 22.0875 16.3658L13.0128 7.29114Z" fill="#6E4435"/>
<path d="M13.003 26.4175C12.7375 26.6831 12.3069 26.6831 12.0414 26.4175C11.7758 26.152 11.7758 25.7214 12.0414 25.4559L21.1288 16.3684C21.3944 16.1029 21.8249 16.1029 22.0905 16.3684C22.3561 16.634 22.3561 17.0645 22.0905 17.3301L13.003 26.4175Z" fill="#6E4435"/>
</svg>
