<svg width="34" height="34" viewBox="0 0 34 34" fill="none" xmlns="http://www.w3.org/2000/svg">
<g opacity="0.78">
<path opacity="0.89" d="M17 34C7.61116 34 0 26.3888 0 17C0 7.61116 7.61116 0 17 0C26.3888 0 34 7.61116 34 17C34 26.3888 26.3888 34 17 34Z" fill="white"/>
<path d="M20.9872 7.29114C21.2527 7.02558 21.6833 7.02558 21.9489 7.29114C22.2144 7.5567 22.2144 7.98725 21.9489 8.25281L12.8742 17.3275C12.6086 17.593 12.1781 17.593 11.9125 17.3275C11.647 17.0619 11.647 16.6314 11.9125 16.3658L20.9872 7.29114Z" fill="#6E4435"/>
<path d="M20.9979 26.4175C21.2635 26.6831 21.694 26.6831 21.9596 26.4175C22.2252 26.152 22.2252 25.7214 21.9596 25.4559L12.8721 16.3684C12.6066 16.1029 12.176 16.1029 11.9105 16.3684C11.6449 16.634 11.6449 17.0645 11.9105 17.3301L20.9979 26.4175Z" fill="#6E4435"/>
</g>
</svg>
